<svg xmlns="http://www.w3.org/2000/svg" width="218.7" height="72.5"><path fill="#ff7000" stroke="rgba(0,0,0,0)" stroke-miterlimit="10" d="M203.1 72h-5.9v-8.9h6.1a6.083 6.083 0 0 0 6-6V44.8a14.648 14.648 0 0 1-6 1.3h-.1a14.937 14.937 0 0 1-14.9-14.9V9.3h8.9v21.8a6.083 6.083 0 0 0 6 6h.1a6.083 6.083 0 0 0 6-6V9.3h8.9v21.8h-.1v26A14.937 14.937 0 0 1 203.2 72Zm-25.3-21.9a14.5 14.5 0 0 1-10.4 4.3h-.1a14.937 14.937 0 0 1-14.9-14.9V24.2a14.937 14.937 0 0 1 14.9-14.9h.1a14.648 14.648 0 0 1 6 1.3 14.9 14.9 0 0 1 8.9 13.6v15.3a6.133 6.133 0 0 0 5.9 6v8.9a15.1 15.1 0 0 1-10.4-4.3Zm-16.5-25.9v15.3a6.083 6.083 0 0 0 6 6h.1a6.083 6.083 0 0 0 6-6V24.2a6.083 6.083 0 0 0-6-6h-.1a6.083 6.083 0 0 0-6 6Zm-29.9 30.2a15.1 15.1 0 0 1-10.4-4.3 14.5 14.5 0 0 1-10.4 4.3h-.1a14.937 14.937 0 0 1-14.9-14.9V.6h8.9v38.9a6.083 6.083 0 0 0 6 6h.1a6.083 6.083 0 0 0 6-6V18.3h8.9v21.2a6.083 6.083 0 0 0 6 6h.1a6.083 6.083 0 0 0 6-6V.6h8.8v38.9a14.937 14.937 0 0 1-14.9 14.9Zm-56.4 0a14.938 14.938 0 0 1-14.9-14.9V24.2a14.95 14.95 0 0 1 29.9 0v15.3a14.937 14.937 0 0 1-14.9 14.9Zm-6.1-30.2v15.3a6.083 6.083 0 0 0 6 6h.1a6.083 6.083 0 0 0 6-6V24.2a6.083 6.083 0 0 0-6-6h-.1a6.083 6.083 0 0 0-6 6ZM39.3 54.3V9.4h8.9v1.3a13.2 13.2 0 0 1 6-1.3 14.217 14.217 0 0 1 7.3 1.9l-5.8 7.2a5.9 5.9 0 0 0-1.4-.2h-.1a6.083 6.083 0 0 0-6 6v30ZM.5 54.1V.6A7.579 7.579 0 0 1 2 .5h13.5a14.937 14.937 0 0 1 14.9 14.9v15.2a14.937 14.937 0 0 1-14.9 14.9h-.1a14 14 0 0 1-5.8-1.2v9.8Zm9-40.2c-.2.5-.1 16.7-.1 16.7a7.72 7.72 0 0 0 .2 1.5 6.092 6.092 0 0 0 5.8 4.5h.1a6.083 6.083 0 0 0 6-6V15.5a6.083 6.083 0 0 0-6-6h-6Z"/></svg>